<?xml version="1.0" standalone="no"?><!DOCTYPE svg PUBLIC "-//W3C//DTD SVG 1.1//EN" "http://www.w3.org/Graphics/SVG/1.1/DTD/svg11.dtd"><svg class="icon" width="200px" height="200.00px" viewBox="0 0 1024 1024" version="1.1" xmlns="http://www.w3.org/2000/svg"><path fill="#333333" d="M756 180c48.601 0 88 39.399 88 88v602c0 48.601-39.399 88-88 88H154c-48.601 0-88-39.399-88-88V268c0-48.601 39.399-88 88-88h602z m0 54H154c-18.59 0-33.695 14.92-34 33.438V870c0 18.59 14.92 33.695 33.438 34H756c18.59 0 33.695-14.92 34-33.438V268c0-18.59-14.92-33.695-33.438-34H756zM843 66c62.878 0 113.97 50.463 114.985 113.098L958 181v602c0 14.912-12.088 27-27 27-14.763 0-26.758-11.848-26.996-26.554L904 783V181c0-33.352-26.767-60.453-59.991-60.992L843 120H289.275c-14.911 0-27-12.088-27-27 0-14.763 11.848-26.758 26.554-27H843zM245 735c14.912 0 27 12.088 27 27s-12.088 27-27 27h-20c-14.912 0-27-12.088-27-27s12.088-27 27-27h20z m437 0c14.912 0 27 12.088 27 27s-12.088 27-27 27H342c-14.912 0-27-12.088-27-27s12.088-27 27-27h340zM569 542c14.912 0 27 12.088 27 27s-12.088 27-27 27H342c-14.912 0-27-12.088-27-27s12.088-27 27-27h227z m-324 0c14.912 0 27 12.088 27 27s-12.088 27-27 27h-20c-14.912 0-27-12.088-27-27s12.088-27 27-27h20z m324-193c14.912 0 27 12.088 27 27s-12.088 27-27 27H342c-14.912 0-27-12.088-27-27s12.088-27 27-27h227z m-324 0c14.912 0 27 12.088 27 27s-12.088 27-27 27h-20c-14.912 0-27-12.088-27-27s12.088-27 27-27h20z" /></svg>