<?xml version="1.0" standalone="no"?><!DOCTYPE svg PUBLIC "-//W3C//DTD SVG 1.1//EN" "http://www.w3.org/Graphics/SVG/1.1/DTD/svg11.dtd"><svg class="icon" width="200px" height="150.04px" viewBox="0 0 1365 1024" version="1.1" xmlns="http://www.w3.org/2000/svg"><path fill="#333333" d="M1014.034373 340.971104h8.947528c10.076554 0 20.096656 0.45161 29.975631 1.326605a336.167382 336.167382 0 0 1 62.463343 11.685416 331.312572 331.312572 0 0 1 220.159998 203.224614 317.397331 317.397331 0 0 1 19.334564 109.289681v24.415179a327.981947 327.981947 0 0 1-292.107157 323.183588c-2.822564 0.366933-5.475774 0.64919-8.100759 0.846769q-15.778133 1.495959-31.640943 1.495959H331.933536q-14.479754 0-28.620799-1.213702A328.969844 328.969844 0 0 1 0 690.969051v-24.443405a327.981947 327.981947 0 0 1 254.905762-316.69169A431.287792 431.287792 0 0 1 755.826211 7.089999a432.162787 432.162787 0 0 1 290.7241 192.865804 59.69723 59.69723 0 0 1-19.757948 83.237414 62.322215 62.322215 0 0 1-84.902728-19.221661 307.828839 307.828839 0 0 0-44.060225-54.306133 312.429619 312.429619 0 0 0-435.690992-1.016123 299.643403 299.643403 0 0 0-89.531733 187.39003 77.451158 77.451158 0 0 1-57.862564 66.414932 207.232655 207.232655 0 0 0-191.708553 204.043158v24.415179a207.176204 207.176204 0 0 0 190.579527 203.930256q8.919303 0.733867 18.064411 0.733866h691.133041q10.245908 0 20.407139-0.987897a41.124759 41.124759 0 0 0 4.544328-0.479836 208.869742 208.869742 0 0 0 175.845742-147.789456 199.470604 199.470604 0 0 0 7.818503-55.491609v-24.358729a198.821414 198.821414 0 0 0-12.1088-68.50363 209.151999 209.151999 0 0 0-138.559671-128.116184 210.139896 210.139896 0 0 0-39.148964-7.253989q-9.229785-0.818544-18.770051-0.84677h-26.249846a212.172142 212.172142 0 0 0-11.939446 0.874995 222.446275 222.446275 0 0 0-203.563322 218.410009 61.023836 61.023836 0 0 1-61.616574 60.431097 61.023836 61.023836 0 0 1-61.616574-60.431097 344.155239 344.155239 0 0 1 314.49009-338.70769 360.441434 360.441434 0 0 1 35.790113-1.74999c2.032246 0 4.008041 0 5.983836 0.282257z" /></svg>