<?xml version="1.0" standalone="no"?><!DOCTYPE svg PUBLIC "-//W3C//DTD SVG 1.1//EN" "http://www.w3.org/Graphics/SVG/1.1/DTD/svg11.dtd"><svg class="icon" width="200px" height="200.00px" viewBox="0 0 1024 1024" version="1.1" xmlns="http://www.w3.org/2000/svg"><path fill="#333333" d="M860.84 917.55c-11.6 0.05-22.71-4.66-30.74-13.04L635.73 702.35C487.51 806.04 283.3 769.92 179.62 621.7s-67.57-352.44 80.66-456.12 352.44-67.57 456.12 80.66c84.99 121.51 77.75 284.96-17.66 398.47l192.94 200.63c16.33 17.01 15.77 44.03-1.24 60.36a42.638 42.638 0 0 1-29.54 11.89l-0.06-0.04zM448.23 192.37c-133.59 0.02-241.87 108.34-241.84 241.93 0.02 133.59 108.34 241.87 241.93 241.84 133.57-0.02 241.84-108.31 241.84-241.89-0.14-133.54-108.38-241.76-241.93-241.88z"  /></svg>