<?xml version="1.0" standalone="no"?><!DOCTYPE svg PUBLIC "-//W3C//DTD SVG 1.1//EN" "http://www.w3.org/Graphics/SVG/1.1/DTD/svg11.dtd"><svg t="1612004787260" class="icon" viewBox="0 0 1024 1024" version="1.1" xmlns="http://www.w3.org/2000/svg" p-id="1574" xmlns:xlink="http://www.w3.org/1999/xlink" width="200" height="200"><defs><style type="text/css"></style></defs><path d="M808.116 1019.624H215.885c-70.093 0-126.92-56.793-126.92-126.885V131.294c0-70.091 56.827-126.918 126.92-126.918H702.36l232.673 211.509V892.74c0 70.09-56.826 126.883-126.918 126.883zM702.361 105.898v88.823c0 23.364 18.93 42.329 42.295 42.329H848.11l-145.75-131.152zM871.575 258.18l-0.033-0.034-0.033 42.33H723.526c-46.728 0-84.624-37.863-84.624-84.591V67.836H237.05c-46.727 0-84.623 37.861-84.623 84.59v719.15c0 46.728 37.895 84.624 84.623 84.624h549.937c46.727 0 84.59-37.895 84.59-84.624V258.18z m-84.59 655.69H660.066c-19.799 0-18.331-21.13 0-21.13h126.919c11.666 0 21.13-9.465 21.13-21.164v-63.46c0-20.397 21.164-19.43 21.164 0v63.46c0.001 23.364-18.931 42.295-42.294 42.295zM638.902 638.902H258.18c-11.666 0-21.13-9.465-21.13-21.13 0-11.698 9.465-21.164 21.13-21.164h380.723c11.699 0 21.164 9.466 21.164 21.164 0 11.666-9.464 21.13-21.164 21.13z m0-148.048H258.18c-11.666 0-21.13-9.465-21.13-21.164 0-11.665 9.465-21.13 21.13-21.13h380.723c11.699 0 21.164 9.466 21.164 21.13 0 11.699-9.464 21.164-21.164 21.164z m-105.754-148.05H258.179c-11.666 0-21.13-9.466-21.13-21.165 0-11.665 9.465-21.164 21.13-21.164h274.969c11.698 0 21.164 9.5 21.164 21.164 0 11.7-9.466 21.164-21.164 21.164z m74.025 549.936c5.865 0 10.599 4.732 10.599 10.566 0 5.832-4.734 10.566-10.6 10.566-5.832 0-10.565-4.734-10.565-10.566 0-5.833 4.733-10.566 10.566-10.566z" p-id="1575"></path></svg>